<svg xmlns="http://www.w3.org/2000/svg" width="1100" height="320" viewBox="0 0 1100 320">
  <style>.actor{font:13px sans-serif; fill:#111827;} .line{stroke:#374151; stroke-width:2;} .note{font:12px sans-serif; fill:#374151}</style>
  <text x="40" y="30" class="actor">Client</text>
  <text x="240" y="30" class="actor">Load Balancer</text>
  <text x="440" y="30" class="actor">API Gateway</text>
  <text x="640" y="30" class="actor">Service</text>
  <text x="840" y="30" class="actor">Database</text>
  <line x1="80" y1="50" x2="80" y2="250" class="line" stroke-dasharray="4 2"/>
  <line x1="280" y1="50" x2="280" y2="250" class="line" stroke-dasharray="4 2"/>
  <line x1="480" y1="50" x2="480" y2="250" class="line" stroke-dasharray="4 2"/>
  <line x1="680" y1="50" x2="680" y2="250" class="line" stroke-dasharray="4 2"/>
  <line x1="880" y1="50" x2="880" y2="250" class="line" stroke-dasharray="4 2"/>
  <polyline points="80,80 280,80" stroke="#0f172a" stroke-width="2" fill="none" marker-end="url(#a)"/>
  <polyline points="280,110 480,110" stroke="#0f172a" stroke-width="2" fill="none" marker-end="url(#a)"/>
  <polyline points="480,140 680,140" stroke="#0f172a" stroke-width="2" fill="none" marker-end="url(#a)"/>
  <polyline points="680,170 880,170" stroke="#0f172a" stroke-width="2" fill="none" marker-end="url(#a)"/>
  <polyline points="880,200 680,200" stroke="#0f172a" stroke-width="2" fill="none" marker-end="url(#a)"/>
  <defs><marker id="a" viewBox="0 0 10 10" refX="9" refY="5" markerWidth="6" markerHeight="6" orient="auto">
    <path d="M 0 0 L 10 5 L 0 10 z" fill="#0f172a" /></marker></defs>
  <text x="40" y="280" class="note">Sequence: Client -> LB -> API Gateway -> Service -> DB -> Service -> Client</text>
</svg>
